ISO-10303-21;
HEADER;
FILE_DESCRIPTION(('Shape Data from monstertruck'),'2;1');
FILE_NAME('box-mm.step','2026-01-01T00:00:00',('Spiling contributors'),('Spiling'),'monstertruck','Spiling original analytic corpus','OSL-3.0');
FILE_SCHEMA(('AUTOMOTIVE_DESIGN'));
ENDSEC;
DATA;
#1=APPLICATION_PROTOCOL_DEFINITION('international standard','automotive_design',2000,#2);
#2=APPLICATION_CONTEXT('core data for automotive mechanical design processes');
#3=SHAPE_DEFINITION_REPRESENTATION(#4,#10);
#4=PRODUCT_DEFINITION_SHAPE('','',#5);
#5=PRODUCT_DEFINITION('design','',#6,#9);
#6=PRODUCT_DEFINITION_FORMATION('','',#7);
#7=PRODUCT('','','',(#8));
#8=PRODUCT_CONTEXT('',#2,'mechanical');
#9=PRODUCT_DEFINITION_CONTEXT('part definition',#2,'design');
#10=SHAPE_REPRESENTATION('',(#16),#11);
#11=(GEOMETRIC_REPRESENTATION_CONTEXT(3) GLOBAL_UNCERTAINTY_ASSIGNED_CONTEXT((#15)) GLOBAL_UNIT_ASSIGNED_CONTEXT((#12,#13,#14)) REPRESENTATION_CONTEXT('Context #1','3D Context with UNIT and UNCERTAINTY') );
#12=(LENGTH_UNIT() NAMED_UNIT(*) SI_UNIT(.MILLI.,.METRE.) );
#13=(NAMED_UNIT(*) PLANE_ANGLE_UNIT() SI_UNIT($,.RADIAN.) );
#14=(NAMED_UNIT(*) SI_UNIT($,.STERADIAN.) SOLID_ANGLE_UNIT() );
#15=UNCERTAINTY_MEASURE_WITH_UNIT(LENGTH_MEASURE(9.99999999999999955E-7),#12,'distance_accuracy_value','confusion accuracy');
#16=MANIFOLD_SOLID_BREP('',#17);
#17=CLOSED_SHELL('',(#18,#25,#32,#39,#46,#53));
#18=ADVANCED_FACE('',(#19),#80,.F.);
#19=FACE_BOUND('',#20,.F.);
#20=EDGE_LOOP('',(#21,#22,#23,#24));
#21=ORIENTED_EDGE('',*,*,#60,.T.);
#22=ORIENTED_EDGE('',*,*,#61,.T.);
#23=ORIENTED_EDGE('',*,*,#62,.T.);
#24=ORIENTED_EDGE('',*,*,#63,.T.);
#25=ADVANCED_FACE('',(#26),#85,.T.);
#26=FACE_BOUND('',#27,.T.);
#27=EDGE_LOOP('',(#28,#29,#30,#31));
#28=ORIENTED_EDGE('',*,*,#60,.T.);
#29=ORIENTED_EDGE('',*,*,#64,.T.);
#30=ORIENTED_EDGE('',*,*,#65,.F.);
#31=ORIENTED_EDGE('',*,*,#66,.F.);
#32=ADVANCED_FACE('',(#33),#90,.T.);
#33=FACE_BOUND('',#34,.T.);
#34=EDGE_LOOP('',(#35,#36,#37,#38));
#35=ORIENTED_EDGE('',*,*,#61,.T.);
#36=ORIENTED_EDGE('',*,*,#67,.T.);
#37=ORIENTED_EDGE('',*,*,#68,.F.);
#38=ORIENTED_EDGE('',*,*,#64,.F.);
#39=ADVANCED_FACE('',(#40),#95,.T.);
#40=FACE_BOUND('',#41,.T.);
#41=EDGE_LOOP('',(#42,#43,#44,#45));
#42=ORIENTED_EDGE('',*,*,#62,.T.);
#43=ORIENTED_EDGE('',*,*,#69,.T.);
#44=ORIENTED_EDGE('',*,*,#70,.F.);
#45=ORIENTED_EDGE('',*,*,#67,.F.);
#46=ADVANCED_FACE('',(#47),#100,.T.);
#47=FACE_BOUND('',#48,.T.);
#48=EDGE_LOOP('',(#49,#50,#51,#52));
#49=ORIENTED_EDGE('',*,*,#63,.T.);
#50=ORIENTED_EDGE('',*,*,#66,.T.);
#51=ORIENTED_EDGE('',*,*,#71,.F.);
#52=ORIENTED_EDGE('',*,*,#69,.F.);
#53=ADVANCED_FACE('',(#54),#105,.T.);
#54=FACE_BOUND('',#55,.T.);
#55=EDGE_LOOP('',(#56,#57,#58,#59));
#56=ORIENTED_EDGE('',*,*,#65,.T.);
#57=ORIENTED_EDGE('',*,*,#68,.T.);
#58=ORIENTED_EDGE('',*,*,#70,.T.);
#59=ORIENTED_EDGE('',*,*,#71,.T.);
#60=EDGE_CURVE('',#72,#73,#110,.T.);
#61=EDGE_CURVE('',#73,#74,#115,.T.);
#62=EDGE_CURVE('',#74,#75,#120,.T.);
#63=EDGE_CURVE('',#75,#72,#125,.T.);
#64=EDGE_CURVE('',#73,#76,#130,.T.);
#65=EDGE_CURVE('',#77,#76,#135,.T.);
#66=EDGE_CURVE('',#72,#77,#140,.T.);
#67=EDGE_CURVE('',#74,#78,#145,.T.);
#68=EDGE_CURVE('',#76,#78,#150,.T.);
#69=EDGE_CURVE('',#75,#79,#155,.T.);
#70=EDGE_CURVE('',#78,#79,#160,.T.);
#71=EDGE_CURVE('',#79,#77,#165,.T.);
#72=VERTEX_POINT('',#170);
#73=VERTEX_POINT('',#171);
#74=VERTEX_POINT('',#172);
#75=VERTEX_POINT('',#173);
#76=VERTEX_POINT('',#174);
#77=VERTEX_POINT('',#175);
#78=VERTEX_POINT('',#176);
#79=VERTEX_POINT('',#177);
#80=PLANE('',#81);
#81=AXIS2_PLACEMENT_3D('',#82,#83,#84);
#82=CARTESIAN_POINT('',(2.00000000000000000E1,1.00000000000000000E1,0.00000000000000000E0));
#83=DIRECTION('',(0.00000000000000000E0,0.00000000000000000E0,1.00000000000000000E0));
#84=DIRECTION('',(-1.00000000000000000E0,0.00000000000000000E0,0.00000000000000000E0));
#85=PLANE('',#86);
#86=AXIS2_PLACEMENT_3D('',#87,#88,#89);
#87=CARTESIAN_POINT('',(0.00000000000000000E0,0.00000000000000000E0,0.00000000000000000E0));
#88=DIRECTION('',(0.00000000000000000E0,-1.00000000000000000E0,0.00000000000000000E0));
#89=DIRECTION('',(1.00000000000000000E0,0.00000000000000000E0,0.00000000000000000E0));
#90=PLANE('',#91);
#91=AXIS2_PLACEMENT_3D('',#92,#93,#94);
#92=CARTESIAN_POINT('',(2.00000000000000000E1,0.00000000000000000E0,0.00000000000000000E0));
#93=DIRECTION('',(1.00000000000000000E0,0.00000000000000000E0,0.00000000000000000E0));
#94=DIRECTION('',(0.00000000000000000E0,1.00000000000000000E0,0.00000000000000000E0));
#95=PLANE('',#96);
#96=AXIS2_PLACEMENT_3D('',#97,#98,#99);
#97=CARTESIAN_POINT('',(2.00000000000000000E1,1.00000000000000000E1,0.00000000000000000E0));
#98=DIRECTION('',(0.00000000000000000E0,1.00000000000000000E0,-0.00000000000000000E0));
#99=DIRECTION('',(-1.00000000000000000E0,0.00000000000000000E0,0.00000000000000000E0));
#100=PLANE('',#101);
#101=AXIS2_PLACEMENT_3D('',#102,#103,#104);
#102=CARTESIAN_POINT('',(0.00000000000000000E0,1.00000000000000000E1,0.00000000000000000E0));
#103=DIRECTION('',(-1.00000000000000000E0,0.00000000000000000E0,0.00000000000000000E0));
#104=DIRECTION('',(0.00000000000000000E0,-1.00000000000000000E0,0.00000000000000000E0));
#105=PLANE('',#106);
#106=AXIS2_PLACEMENT_3D('',#107,#108,#109);
#107=CARTESIAN_POINT('',(2.00000000000000000E1,1.00000000000000000E1,8.00000000000000000E0));
#108=DIRECTION('',(0.00000000000000000E0,0.00000000000000000E0,1.00000000000000000E0));
#109=DIRECTION('',(-1.00000000000000000E0,0.00000000000000000E0,0.00000000000000000E0));
#110=SURFACE_CURVE('',#111,(#80,#85),.CURVE_3D.);
#111=LINE('',#112,#113);
#112=CARTESIAN_POINT('',(0.00000000000000000E0,0.00000000000000000E0,0.00000000000000000E0));
#113=VECTOR('',#114,2.00000000000000000E1);
#114=DIRECTION('',(1.00000000000000000E0,0.00000000000000000E0,0.00000000000000000E0));
#115=SURFACE_CURVE('',#116,(#80,#90),.CURVE_3D.);
#116=LINE('',#117,#118);
#117=CARTESIAN_POINT('',(2.00000000000000000E1,0.00000000000000000E0,0.00000000000000000E0));
#118=VECTOR('',#119,1.00000000000000000E1);
#119=DIRECTION('',(0.00000000000000000E0,1.00000000000000000E0,0.00000000000000000E0));
#120=SURFACE_CURVE('',#121,(#80,#95),.CURVE_3D.);
#121=LINE('',#122,#123);
#122=CARTESIAN_POINT('',(2.00000000000000000E1,1.00000000000000000E1,0.00000000000000000E0));
#123=VECTOR('',#124,2.00000000000000000E1);
#124=DIRECTION('',(-1.00000000000000000E0,0.00000000000000000E0,0.00000000000000000E0));
#125=SURFACE_CURVE('',#126,(#80,#100),.CURVE_3D.);
#126=LINE('',#127,#128);
#127=CARTESIAN_POINT('',(0.00000000000000000E0,1.00000000000000000E1,0.00000000000000000E0));
#128=VECTOR('',#129,1.00000000000000000E1);
#129=DIRECTION('',(0.00000000000000000E0,-1.00000000000000000E0,0.00000000000000000E0));
#130=SURFACE_CURVE('',#131,(#85,#90),.CURVE_3D.);
#131=LINE('',#132,#133);
#132=CARTESIAN_POINT('',(2.00000000000000000E1,0.00000000000000000E0,0.00000000000000000E0));
#133=VECTOR('',#134,8.00000000000000000E0);
#134=DIRECTION('',(0.00000000000000000E0,0.00000000000000000E0,1.00000000000000000E0));
#135=SURFACE_CURVE('',#136,(#85,#105),.CURVE_3D.);
#136=LINE('',#137,#138);
#137=CARTESIAN_POINT('',(0.00000000000000000E0,0.00000000000000000E0,8.00000000000000000E0));
#138=VECTOR('',#139,2.00000000000000000E1);
#139=DIRECTION('',(1.00000000000000000E0,0.00000000000000000E0,0.00000000000000000E0));
#140=SURFACE_CURVE('',#141,(#85,#100),.CURVE_3D.);
#141=LINE('',#142,#143);
#142=CARTESIAN_POINT('',(0.00000000000000000E0,0.00000000000000000E0,0.00000000000000000E0));
#143=VECTOR('',#144,8.00000000000000000E0);
#144=DIRECTION('',(0.00000000000000000E0,0.00000000000000000E0,1.00000000000000000E0));
#145=SURFACE_CURVE('',#146,(#90,#95),.CURVE_3D.);
#146=LINE('',#147,#148);
#147=CARTESIAN_POINT('',(2.00000000000000000E1,1.00000000000000000E1,0.00000000000000000E0));
#148=VECTOR('',#149,8.00000000000000000E0);
#149=DIRECTION('',(0.00000000000000000E0,0.00000000000000000E0,1.00000000000000000E0));
#150=SURFACE_CURVE('',#151,(#90,#105),.CURVE_3D.);
#151=LINE('',#152,#153);
#152=CARTESIAN_POINT('',(2.00000000000000000E1,0.00000000000000000E0,8.00000000000000000E0));
#153=VECTOR('',#154,1.00000000000000000E1);
#154=DIRECTION('',(0.00000000000000000E0,1.00000000000000000E0,0.00000000000000000E0));
#155=SURFACE_CURVE('',#156,(#95,#100),.CURVE_3D.);
#156=LINE('',#157,#158);
#157=CARTESIAN_POINT('',(0.00000000000000000E0,1.00000000000000000E1,0.00000000000000000E0));
#158=VECTOR('',#159,8.00000000000000000E0);
#159=DIRECTION('',(0.00000000000000000E0,0.00000000000000000E0,1.00000000000000000E0));
#160=SURFACE_CURVE('',#161,(#95,#105),.CURVE_3D.);
#161=LINE('',#162,#163);
#162=CARTESIAN_POINT('',(2.00000000000000000E1,1.00000000000000000E1,8.00000000000000000E0));
#163=VECTOR('',#164,2.00000000000000000E1);
#164=DIRECTION('',(-1.00000000000000000E0,0.00000000000000000E0,0.00000000000000000E0));
#165=SURFACE_CURVE('',#166,(#100,#105),.CURVE_3D.);
#166=LINE('',#167,#168);
#167=CARTESIAN_POINT('',(0.00000000000000000E0,1.00000000000000000E1,8.00000000000000000E0));
#168=VECTOR('',#169,1.00000000000000000E1);
#169=DIRECTION('',(0.00000000000000000E0,-1.00000000000000000E0,0.00000000000000000E0));
#170=CARTESIAN_POINT('',(0.00000000000000000E0,0.00000000000000000E0,0.00000000000000000E0));
#171=CARTESIAN_POINT('',(2.00000000000000000E1,0.00000000000000000E0,0.00000000000000000E0));
#172=CARTESIAN_POINT('',(2.00000000000000000E1,1.00000000000000000E1,0.00000000000000000E0));
#173=CARTESIAN_POINT('',(0.00000000000000000E0,1.00000000000000000E1,0.00000000000000000E0));
#174=CARTESIAN_POINT('',(2.00000000000000000E1,0.00000000000000000E0,8.00000000000000000E0));
#175=CARTESIAN_POINT('',(0.00000000000000000E0,0.00000000000000000E0,8.00000000000000000E0));
#176=CARTESIAN_POINT('',(2.00000000000000000E1,1.00000000000000000E1,8.00000000000000000E0));
#177=CARTESIAN_POINT('',(0.00000000000000000E0,1.00000000000000000E1,8.00000000000000000E0));
#178=NEXT_ASSEMBLY_USAGE_OCCURRENCE('original-adversary','','',#5,#5,$);
ENDSEC;
END-ISO-10303-21;
