ISO-10303-21;
HEADER;
FILE_DESCRIPTION(('Shape Data from monstertruck'), '2;1');
FILE_NAME('through-hole.step', '2026-01-01T00:00:00', ('Spiling contributors'), ('Spiling'), 'monstertruck', 'Spiling original analytic corpus', 'OSL-3.0');
FILE_SCHEMA(('AUTOMOTIVE_DESIGN'));
ENDSEC;
DATA;
#1 = APPLICATION_PROTOCOL_DEFINITION('international standard', 'automotive_design', 2000, #2);
#2 = APPLICATION_CONTEXT('core data for automotive mechanical design processes');
#3 = SHAPE_DEFINITION_REPRESENTATION(#4, #10);
#4 = PRODUCT_DEFINITION_SHAPE('','', #5);
#5 = PRODUCT_DEFINITION('design','', #6, #9);
#6 = PRODUCT_DEFINITION_FORMATION('','', #7);
#7 = PRODUCT('','','', (#8));
#8 = PRODUCT_CONTEXT('', #2, 'mechanical');
#9 = PRODUCT_DEFINITION_CONTEXT('part definition', #2, 'design');
#10 = SHAPE_REPRESENTATION('', (#16), #11);
#11 = (
    GEOMETRIC_REPRESENTATION_CONTEXT(3)
    GLOBAL_UNCERTAINTY_ASSIGNED_CONTEXT((#15))
    GLOBAL_UNIT_ASSIGNED_CONTEXT((#12, #13, #14))
    REPRESENTATION_CONTEXT('Context #1', '3D Context with UNIT and UNCERTAINTY')
);
#12 = ( LENGTH_UNIT() NAMED_UNIT(*) SI_UNIT(.MILLI.,.METRE.) );
#13 = ( NAMED_UNIT(*) PLANE_ANGLE_UNIT() SI_UNIT($,.RADIAN.) );
#14 = ( NAMED_UNIT(*) SI_UNIT($,.STERADIAN.) SOLID_ANGLE_UNIT() );
#15 = UNCERTAINTY_MEASURE_WITH_UNIT(LENGTH_MEASURE(1.0E-6), #12, 'distance_accuracy_value','confusion accuracy');
#16 = MANIFOLD_SOLID_BREP('', #17);
#17 = CLOSED_SHELL('', (#18, #29, #36, #43, #50, #57, #64, #71));
#18 = ADVANCED_FACE('', (#19, #25), #112, .F.);
#19 = FACE_BOUND('', #20, .F.);
#20 = EDGE_LOOP('', (#21, #22, #23, #24));
#21 = ORIENTED_EDGE('', *, *, #82, .T.);
#22 = ORIENTED_EDGE('', *, *, #83, .T.);
#23 = ORIENTED_EDGE('', *, *, #84, .T.);
#24 = ORIENTED_EDGE('', *, *, #85, .T.);
#25 = FACE_BOUND('', #26, .F.);
#26 = EDGE_LOOP('', (#27, #28));
#27 = ORIENTED_EDGE('', *, *, #86, .F.);
#28 = ORIENTED_EDGE('', *, *, #87, .F.);
#29 = ADVANCED_FACE('', (#30), #117, .T.);
#30 = FACE_BOUND('', #31, .T.);
#31 = EDGE_LOOP('', (#32, #33, #34, #35));
#32 = ORIENTED_EDGE('', *, *, #82, .T.);
#33 = ORIENTED_EDGE('', *, *, #88, .T.);
#34 = ORIENTED_EDGE('', *, *, #89, .F.);
#35 = ORIENTED_EDGE('', *, *, #90, .F.);
#36 = ADVANCED_FACE('', (#37), #122, .T.);
#37 = FACE_BOUND('', #38, .T.);
#38 = EDGE_LOOP('', (#39, #40, #41, #42));
#39 = ORIENTED_EDGE('', *, *, #83, .T.);
#40 = ORIENTED_EDGE('', *, *, #91, .T.);
#41 = ORIENTED_EDGE('', *, *, #92, .F.);
#42 = ORIENTED_EDGE('', *, *, #88, .F.);
#43 = ADVANCED_FACE('', (#44), #127, .T.);
#44 = FACE_BOUND('', #45, .T.);
#45 = EDGE_LOOP('', (#46, #47, #48, #49));
#46 = ORIENTED_EDGE('', *, *, #84, .T.);
#47 = ORIENTED_EDGE('', *, *, #93, .T.);
#48 = ORIENTED_EDGE('', *, *, #94, .F.);
#49 = ORIENTED_EDGE('', *, *, #91, .F.);
#50 = ADVANCED_FACE('', (#51), #132, .T.);
#51 = FACE_BOUND('', #52, .T.);
#52 = EDGE_LOOP('', (#53, #54, #55, #56));
#53 = ORIENTED_EDGE('', *, *, #85, .T.);
#54 = ORIENTED_EDGE('', *, *, #90, .T.);
#55 = ORIENTED_EDGE('', *, *, #95, .F.);
#56 = ORIENTED_EDGE('', *, *, #93, .F.);
#57 = ADVANCED_FACE('', (#58), #137, .F.);
#58 = FACE_BOUND('', #59, .F.);
#59 = EDGE_LOOP('', (#60, #61, #62, #63));
#60 = ORIENTED_EDGE('', *, *, #96, .T.);
#61 = ORIENTED_EDGE('', *, *, #97, .F.);
#62 = ORIENTED_EDGE('', *, *, #98, .F.);
#63 = ORIENTED_EDGE('', *, *, #86, .T.);
#64 = ADVANCED_FACE('', (#65), #145, .F.);
#65 = FACE_BOUND('', #66, .F.);
#66 = EDGE_LOOP('', (#67, #68, #69, #70));
#67 = ORIENTED_EDGE('', *, *, #98, .T.);
#68 = ORIENTED_EDGE('', *, *, #99, .F.);
#69 = ORIENTED_EDGE('', *, *, #96, .F.);
#70 = ORIENTED_EDGE('', *, *, #87, .T.);
#71 = ADVANCED_FACE('', (#72, #78), #153, .T.);
#72 = FACE_BOUND('', #73, .T.);
#73 = EDGE_LOOP('', (#74, #75, #76, #77));
#74 = ORIENTED_EDGE('', *, *, #89, .T.);
#75 = ORIENTED_EDGE('', *, *, #92, .T.);
#76 = ORIENTED_EDGE('', *, *, #94, .T.);
#77 = ORIENTED_EDGE('', *, *, #95, .T.);
#78 = FACE_BOUND('', #79, .T.);
#79 = EDGE_LOOP('', (#80, #81));
#80 = ORIENTED_EDGE('', *, *, #97, .F.);
#81 = ORIENTED_EDGE('', *, *, #99, .F.);
#82 = EDGE_CURVE('', #100, #101, #158, .T.);
#83 = EDGE_CURVE('', #101, #102, #163, .T.);
#84 = EDGE_CURVE('', #102, #103, #168, .T.);
#85 = EDGE_CURVE('', #103, #100, #173, .T.);
#86 = EDGE_CURVE('', #104, #105, #178, .T.);
#87 = EDGE_CURVE('', #105, #104, #184, .T.);
#88 = EDGE_CURVE('', #101, #106, #190, .T.);
#89 = EDGE_CURVE('', #107, #106, #195, .T.);
#90 = EDGE_CURVE('', #100, #107, #200, .T.);
#91 = EDGE_CURVE('', #102, #108, #205, .T.);
#92 = EDGE_CURVE('', #106, #108, #210, .T.);
#93 = EDGE_CURVE('', #103, #109, #215, .T.);
#94 = EDGE_CURVE('', #108, #109, #220, .T.);
#95 = EDGE_CURVE('', #109, #107, #225, .T.);
#96 = EDGE_CURVE('', #105, #110, #230, .T.);
#97 = EDGE_CURVE('', #111, #110, #235, .T.);
#98 = EDGE_CURVE('', #104, #111, #241, .T.);
#99 = EDGE_CURVE('', #110, #111, #246, .T.);
#100 = VERTEX_POINT('', #252);
#101 = VERTEX_POINT('', #253);
#102 = VERTEX_POINT('', #254);
#103 = VERTEX_POINT('', #255);
#104 = VERTEX_POINT('', #256);
#105 = VERTEX_POINT('', #257);
#106 = VERTEX_POINT('', #258);
#107 = VERTEX_POINT('', #259);
#108 = VERTEX_POINT('', #260);
#109 = VERTEX_POINT('', #261);
#110 = VERTEX_POINT('', #262);
#111 = VERTEX_POINT('', #263);
#112 = PLANE('', #113);
#113 = AXIS2_PLACEMENT_3D('', #114, #115, #116);
#114 = CARTESIAN_POINT('', (20.0, 20.0, 0.0));
#115 = DIRECTION('', (0.0, 0.0, 1.0));
#116 = DIRECTION('', (-1.0, 0.0, 0.0));
#117 = PLANE('', #118);
#118 = AXIS2_PLACEMENT_3D('', #119, #120, #121);
#119 = CARTESIAN_POINT('', (0.0, 0.0, 0.0));
#120 = DIRECTION('', (0.0, -1.0, 0.0));
#121 = DIRECTION('', (1.0, 0.0, 0.0));
#122 = PLANE('', #123);
#123 = AXIS2_PLACEMENT_3D('', #124, #125, #126);
#124 = CARTESIAN_POINT('', (20.0, 0.0, 0.0));
#125 = DIRECTION('', (1.0, 0.0, 0.0));
#126 = DIRECTION('', (0.0, 1.0, 0.0));
#127 = PLANE('', #128);
#128 = AXIS2_PLACEMENT_3D('', #129, #130, #131);
#129 = CARTESIAN_POINT('', (20.0, 20.0, 0.0));
#130 = DIRECTION('', (0.0, 1.0, -0.0));
#131 = DIRECTION('', (-1.0, 0.0, 0.0));
#132 = PLANE('', #133);
#133 = AXIS2_PLACEMENT_3D('', #134, #135, #136);
#134 = CARTESIAN_POINT('', (0.0, 20.0, 0.0));
#135 = DIRECTION('', (-1.0, 0.0, 0.0));
#136 = DIRECTION('', (0.0, -1.0, 0.0));
#137 = CYLINDRICAL_SURFACE('', #138, 3.0000000000000018);
#138 = AXIS2_PLACEMENT_3D('', #139, #140, #141);
#139 = CARTESIAN_POINT('', (10.0, 10.0, 0.0));
#140 = DIRECTION('', (0.0, 0.0, 1.0));
#141 = DIRECTION('', (-1.0, 5.9211894647E-16, 0.0));
#145 = CYLINDRICAL_SURFACE('', #146, 3);
#146 = AXIS2_PLACEMENT_3D('', #147, #148, #149);
#147 = CARTESIAN_POINT('', (10.0, 10.0, 0.0));
#148 = DIRECTION('', (0.0, 0.0, 1.0));
#149 = DIRECTION('', (1.0, 0.0, 0.0));
#153 = PLANE('', #154);
#154 = AXIS2_PLACEMENT_3D('', #155, #156, #157);
#155 = CARTESIAN_POINT('', (20.0, 20.0, 8.0));
#156 = DIRECTION('', (0.0, 0.0, 1.0));
#157 = DIRECTION('', (-1.0, 0.0, 0.0));
#158 = SURFACE_CURVE('', #159, (#112, #117), .CURVE_3D.);
#159 = LINE('', #160, #161);
#160 = CARTESIAN_POINT('', (0.0, 0.0, 0.0));
#161 = VECTOR('', #162, 20.0);
#162 = DIRECTION('', (1.0, 0.0, 0.0));
#163 = SURFACE_CURVE('', #164, (#112, #122), .CURVE_3D.);
#164 = LINE('', #165, #166);
#165 = CARTESIAN_POINT('', (20.0, 0.0, 0.0));
#166 = VECTOR('', #167, 20.0);
#167 = DIRECTION('', (0.0, 1.0, 0.0));
#168 = SURFACE_CURVE('', #169, (#112, #127), .CURVE_3D.);
#169 = LINE('', #170, #171);
#170 = CARTESIAN_POINT('', (20.0, 20.0, 0.0));
#171 = VECTOR('', #172, 20.0);
#172 = DIRECTION('', (-1.0, 0.0, 0.0));
#173 = SURFACE_CURVE('', #174, (#112, #132), .CURVE_3D.);
#174 = LINE('', #175, #176);
#175 = CARTESIAN_POINT('', (0.0, 20.0, 0.0));
#176 = VECTOR('', #177, 20.0);
#177 = DIRECTION('', (0.0, -1.0, 0.0));
#178 = SURFACE_CURVE('', #179, (#112, #137), .CURVE_3D.);
#179 = CIRCLE('', #180, 3.0000000000000018);
#180 = AXIS2_PLACEMENT_3D('', #181, #182, #183);
#181 = CARTESIAN_POINT('', (10.0, 10.0, 0.0));
#182 = DIRECTION('', (0.0, 0.0, 1.0));
#183 = DIRECTION('', (-1.0, 5.9211894647E-16, 0.0));
#184 = SURFACE_CURVE('', #185, (#112, #145), .CURVE_3D.);
#185 = CIRCLE('', #186, 3.0);
#186 = AXIS2_PLACEMENT_3D('', #187, #188, #189);
#187 = CARTESIAN_POINT('', (10.0, 10.0, 0.0));
#188 = DIRECTION('', (0.0, 0.0, 1.0));
#189 = DIRECTION('', (1.0, 0.0, 0.0));
#190 = SURFACE_CURVE('', #191, (#117, #122), .CURVE_3D.);
#191 = LINE('', #192, #193);
#192 = CARTESIAN_POINT('', (20.0, 0.0, 0.0));
#193 = VECTOR('', #194, 8.0);
#194 = DIRECTION('', (0.0, 0.0, 1.0));
#195 = SURFACE_CURVE('', #196, (#117, #153), .CURVE_3D.);
#196 = LINE('', #197, #198);
#197 = CARTESIAN_POINT('', (0.0, 0.0, 8.0));
#198 = VECTOR('', #199, 20.0);
#199 = DIRECTION('', (1.0, 0.0, 0.0));
#200 = SURFACE_CURVE('', #201, (#117, #132), .CURVE_3D.);
#201 = LINE('', #202, #203);
#202 = CARTESIAN_POINT('', (0.0, 0.0, 0.0));
#203 = VECTOR('', #204, 8.0);
#204 = DIRECTION('', (0.0, 0.0, 1.0));
#205 = SURFACE_CURVE('', #206, (#122, #127), .CURVE_3D.);
#206 = LINE('', #207, #208);
#207 = CARTESIAN_POINT('', (20.0, 20.0, 0.0));
#208 = VECTOR('', #209, 8.0);
#209 = DIRECTION('', (0.0, 0.0, 1.0));
#210 = SURFACE_CURVE('', #211, (#122, #153), .CURVE_3D.);
#211 = LINE('', #212, #213);
#212 = CARTESIAN_POINT('', (20.0, 0.0, 8.0));
#213 = VECTOR('', #214, 20.0);
#214 = DIRECTION('', (0.0, 1.0, 0.0));
#215 = SURFACE_CURVE('', #216, (#127, #132), .CURVE_3D.);
#216 = LINE('', #217, #218);
#217 = CARTESIAN_POINT('', (0.0, 20.0, 0.0));
#218 = VECTOR('', #219, 8.0);
#219 = DIRECTION('', (0.0, 0.0, 1.0));
#220 = SURFACE_CURVE('', #221, (#127, #153), .CURVE_3D.);
#221 = LINE('', #222, #223);
#222 = CARTESIAN_POINT('', (20.0, 20.0, 8.0));
#223 = VECTOR('', #224, 20.0);
#224 = DIRECTION('', (-1.0, 0.0, 0.0));
#225 = SURFACE_CURVE('', #226, (#132, #153), .CURVE_3D.);
#226 = LINE('', #227, #228);
#227 = CARTESIAN_POINT('', (0.0, 20.0, 8.0));
#228 = VECTOR('', #229, 20.0);
#229 = DIRECTION('', (0.0, -1.0, 0.0));
#230 = SURFACE_CURVE('', #231, (#137, #145), .CURVE_3D.);
#231 = LINE('', #232, #233);
#232 = CARTESIAN_POINT('', (13.0, 10.0, 0.0));
#233 = VECTOR('', #234, 8.0);
#234 = DIRECTION('', (0.0, 0.0, 1.0));
#235 = SURFACE_CURVE('', #236, (#137, #153), .CURVE_3D.);
#236 = CIRCLE('', #237, 3.0000000000000018);
#237 = AXIS2_PLACEMENT_3D('', #238, #239, #240);
#238 = CARTESIAN_POINT('', (10.0, 10.0, 8.0));
#239 = DIRECTION('', (0.0, 0.0, 1.0));
#240 = DIRECTION('', (-1.0, 5.9211894647E-16, 0.0));
#241 = SURFACE_CURVE('', #242, (#137, #145), .CURVE_3D.);
#242 = LINE('', #243, #244);
#243 = CARTESIAN_POINT('', (6.999999999999998, 10.000000000000002, 0.0));
#244 = VECTOR('', #245, 8.0);
#245 = DIRECTION('', (0.0, 0.0, 1.0));
#246 = SURFACE_CURVE('', #247, (#145, #153), .CURVE_3D.);
#247 = CIRCLE('', #248, 3.0);
#248 = AXIS2_PLACEMENT_3D('', #249, #250, #251);
#249 = CARTESIAN_POINT('', (10.0, 10.0, 8.0));
#250 = DIRECTION('', (0.0, 0.0, 1.0));
#251 = DIRECTION('', (1.0, 0.0, 0.0));
#252 = CARTESIAN_POINT('', (0.0, 0.0, 0.0));
#253 = CARTESIAN_POINT('', (20.0, 0.0, 0.0));
#254 = CARTESIAN_POINT('', (20.0, 20.0, 0.0));
#255 = CARTESIAN_POINT('', (0.0, 20.0, 0.0));
#256 = CARTESIAN_POINT('', (6.999999999999998, 10.000000000000002, 0.0));
#257 = CARTESIAN_POINT('', (13.0, 10.0, 0.0));
#258 = CARTESIAN_POINT('', (20.0, 0.0, 8.0));
#259 = CARTESIAN_POINT('', (0.0, 0.0, 8.0));
#260 = CARTESIAN_POINT('', (20.0, 20.0, 8.0));
#261 = CARTESIAN_POINT('', (0.0, 20.0, 8.0));
#262 = CARTESIAN_POINT('', (13.0, 10.0, 8.0));
#263 = CARTESIAN_POINT('', (6.999999999999998, 10.000000000000002, 8.0));
ENDSEC;
END-ISO-10303-21;
